<svg xmlns="http://www.w3.org/2000/svg" xmlns:xlink="http://www.w3.org/1999/xlink" width="500" zoomAndPan="magnify" viewBox="0 0 375 225" height="300" preserveAspectRatio="xMidYMid meet" version="1.0"><defs><filter x="0%" y="0%" width="100%" height="100%" id="01b6b0444f"><feColorMatrix values="0 0 0 0 1 0 0 0 0 1 0 0 0 0 1 0 0 0 1 0" color-interpolation-filters="sRGB"/></filter><g/><mask id="5cf1697f48"><g filter="url(#01b6b0444f)"><rect x="-37.5" width="450" fill="#000000" y="-22.5" height="270" fill-opacity="0.28"/></g></mask><clipPath id="ecc8783956"><path d="M 0.640625 0.601562 L 136.960938 0.601562 L 136.960938 144.359375 L 0.640625 144.359375 Z M 0.640625 0.601562 " clip-rule="nonzero"/></clipPath><clipPath id="6453caa118"><rect x="0" width="137" y="0" height="145"/></clipPath><mask id="4d82a9093e"><g filter="url(#01b6b0444f)"><rect x="-37.5" width="450" fill="#000000" y="-22.5" height="270" fill-opacity="0.1"/></g></mask><clipPath id="9d067080b2"><path d="M 0.640625 0.601562 L 68.558594 0.601562 L 68.558594 112 L 0.640625 112 Z M 0.640625 0.601562 " clip-rule="nonzero"/></clipPath><clipPath id="e8de8a7cab"><rect x="0" width="69" y="0" height="113"/></clipPath><mask id="034ad9295c"><g filter="url(#01b6b0444f)"><rect x="-37.5" width="450" fill="#000000" y="-22.5" height="270" fill-opacity="0.5"/></g></mask><clipPath id="67ea1defa4"><path d="M 0.640625 0.601562 L 69.761719 0.601562 L 69.761719 144 L 0.640625 144 Z M 0.640625 0.601562 " clip-rule="nonzero"/></clipPath><clipPath id="a0ac3c70c3"><rect x="0" width="70" y="0" height="145"/></clipPath><mask id="d8c8e7f240"><g filter="url(#01b6b0444f)"><rect x="-37.5" width="450" fill="#000000" y="-22.5" height="270" fill-opacity="0.21"/></g></mask><clipPath id="75bd17857e"><path d="M 1 0.121094 L 60 0.121094 L 60 68.519531 L 1 68.519531 Z M 1 0.121094 " clip-rule="nonzero"/></clipPath><clipPath id="6e6db26bfd"><rect x="0" width="61" y="0" height="69"/></clipPath><mask id="4895d894e4"><g filter="url(#01b6b0444f)"><rect x="-37.5" width="450" fill="#000000" y="-22.5" height="270" fill-opacity="0.51"/></g></mask><clipPath id="c867542e68"><path d="M 0.640625 0.601562 L 64 0.601562 L 64 144 L 0.640625 144 Z M 0.640625 0.601562 " clip-rule="nonzero"/></clipPath><clipPath id="9bffd8adc7"><rect x="0" width="64" y="0" height="145"/></clipPath><mask id="1df6a40a9f"><g filter="url(#01b6b0444f)"><rect x="-37.5" width="450" fill="#000000" y="-22.5" height="270" fill-opacity="0.42"/></g></mask><clipPath id="feaa619ca7"><path d="M 0.398438 0.398438 L 94.238281 0.398438 L 94.238281 106.238281 L 0.398438 106.238281 Z M 0.398438 0.398438 " clip-rule="nonzero"/></clipPath><clipPath id="86f4e8e04a"><rect x="0" width="95" y="0" height="107"/></clipPath><clipPath id="862693dd49"><path d="M 287.8125 150.1875 L 335.0625 150.1875 L 335.0625 211.6875 L 287.8125 211.6875 Z M 287.8125 150.1875 " clip-rule="nonzero"/></clipPath></defs><path fill="#d11d4d" d="M 157.65625 95.230469 L 155.214844 71.113281 C 157.234375 70.597656 158.726562 68.769531 158.726562 66.589844 C 158.726562 64.082031 156.757812 62.046875 154.28125 61.925781 L 152.929688 48.535156 C 154.117188 47.988281 154.921875 46.738281 154.796875 45.316406 C 154.667969 43.792969 153.441406 42.542969 151.925781 42.386719 C 151.121094 42.304688 150.367188 42.519531 149.761719 42.929688 C 146.460938 40.703125 140.132812 36.710938 131.847656 32.730469 C 131.207031 32.421875 130.550781 32.113281 129.871094 31.800781 C 130.097656 30.972656 130.125 30.066406 129.792969 29.105469 C 129.171875 27.308594 127.53125 26.007812 125.636719 25.898438 C 123.808594 25.796875 122.195312 26.746094 121.339844 28.195312 C 110.824219 24.160156 97.722656 20.613281 83.894531 20.476562 C 79.324219 20.4375 74.710938 20.882812 70.074219 21.808594 C 69.589844 21.902344 69.105469 22.003906 68.621094 22.109375 C 67.914062 20.429688 66.25 19.25 64.3125 19.25 C 61.730469 19.25 59.636719 21.34375 59.636719 23.925781 C 59.636719 24.175781 59.664062 24.421875 59.699219 24.660156 C 57.210938 25.535156 54.71875 26.539062 52.230469 27.6875 C 43.5 31.710938 36.507812 36.617188 31.535156 40.699219 C 30.609375 40.019531 29.417969 39.667969 28.144531 39.835938 C 26.039062 40.117188 24.359375 41.835938 24.132812 43.949219 C 23.828125 46.761719 26.023438 49.144531 28.777344 49.144531 C 30.152344 49.144531 31.378906 48.546875 32.234375 47.609375 L 37.914062 51.386719 C 34.375 52.214844 30.742188 53.402344 27.039062 54.984375 L 64.816406 76.578125 C 66.457031 77.515625 67.855469 78.832031 68.890625 80.414062 L 83.464844 102.671875 C 84.605469 104.414062 84.5625 106.675781 83.355469 108.371094 L 75.507812 119.386719 L 80.375 108.332031 C 81.121094 106.640625 80.882812 104.679688 79.757812 103.214844 L 66.246094 85.644531 L 66.03125 85.363281 C 64.398438 83.171875 62.066406 81.601562 59.421875 80.921875 L 48.207031 78.027344 L 17.082031 69.980469 C 17.078125 69.980469 17.074219 69.980469 17.074219 69.980469 C 17.074219 69.984375 17.074219 69.988281 17.078125 69.996094 C 19.109375 79.671875 23.25 92.277344 21.386719 99.351562 C 19.519531 106.449219 9.15625 119.535156 3.644531 126.132812 C 2.050781 128.046875 2.910156 130.960938 5.289062 131.703125 C 8.652344 132.753906 12.863281 134.132812 15.222656 135.179688 C 17.617188 136.234375 17 139.144531 15.957031 141.554688 C 15.101562 143.519531 16.226562 145.78125 18.300781 146.3125 L 23.441406 147.632812 L 19.507812 151.09375 C 18.480469 151.996094 18.570312 153.65625 19.722656 154.390625 C 22.089844 155.914062 24.839844 159.417969 22.671875 167.28125 C 19.207031 179.863281 28.074219 179.816406 50.257812 180.871094 C 50.769531 180.894531 51.257812 180.933594 51.71875 180.988281 C 70.730469 183.273438 50.261719 211.191406 48.917969 212.992188 L 48.859375 213.074219 C 48.855469 213.074219 48.851562 213.082031 48.851562 213.085938 C 80.84375 192.535156 110.496094 184.835938 138.796875 184.570312 C 138.796875 184.570312 135.4375 177.785156 133.316406 169.21875 C 135.085938 168.625 136.382812 167.011719 136.5 165.070312 C 136.65625 162.476562 134.523438 160.164062 131.925781 160.113281 C 131.050781 160.09375 130.230469 160.320312 129.523438 160.726562 L 109.648438 135.511719 C 109.753906 135.398438 109.851562 135.285156 109.945312 135.164062 L 128.773438 145.566406 C 128.464844 146.394531 128.371094 147.328125 128.613281 148.308594 C 129.089844 150.242188 130.78125 151.6875 132.765625 151.847656 C 135.519531 152.070312 137.828125 149.898438 137.828125 147.1875 C 137.828125 145.480469 136.910156 143.992188 135.542969 143.175781 C 137.71875 138.164062 140.757812 132.042969 143.90625 126.011719 C 144.433594 124.992188 144.972656 123.972656 145.503906 122.964844 C 146.070312 123.113281 146.703125 123.113281 147.375 122.8125 C 148.347656 122.375 149.042969 121.441406 149.113281 120.375 C 149.175781 119.4375 148.785156 118.589844 148.144531 118.019531 C 151.140625 112.46875 153.910156 107.515625 155.75 104.253906 C 156.421875 104.511719 157.164062 104.625 157.945312 104.539062 C 160.21875 104.28125 162.015625 102.355469 162.097656 100.066406 C 162.191406 97.484375 160.1875 95.355469 157.65625 95.230469 Z M 151.550781 48.832031 L 152.890625 62.0625 C 152.132812 62.257812 151.449219 62.640625 150.890625 63.15625 L 136.542969 51.636719 C 136.710938 51.269531 136.808594 50.863281 136.808594 50.433594 C 136.808594 50.351562 136.804688 50.277344 136.796875 50.199219 L 148.625 46.910156 C 149.125 48.03125 150.246094 48.820312 151.550781 48.832031 Z M 149.46875 67.511719 L 131.535156 74.042969 C 130.441406 71.503906 128.527344 69.410156 126.117188 68.09375 L 133.175781 53.210938 C 133.414062 53.277344 133.667969 53.316406 133.925781 53.316406 C 134.582031 53.316406 135.183594 53.09375 135.667969 52.726562 L 150.011719 64.242188 C 149.613281 64.933594 149.378906 65.734375 149.378906 66.589844 C 149.378906 66.90625 149.410156 67.214844 149.46875 67.511719 Z M 130.582031 85.550781 L 153.058594 98.230469 C 152.871094 98.726562 152.765625 99.261719 152.757812 99.820312 L 137.425781 101.90625 L 132.714844 102.546875 C 132.292969 101.484375 131.253906 100.734375 130.042969 100.734375 C 129.910156 100.734375 129.785156 100.746094 129.660156 100.761719 L 125.410156 90.070312 C 126.890625 89.382812 128.210938 88.410156 129.296875 87.21875 C 129.773438 86.703125 130.203125 86.144531 130.582031 85.550781 Z M 129.285156 33.105469 C 138.335938 37.289062 145.234375 41.589844 148.792969 43.96875 C 148.523438 44.429688 148.363281 44.960938 148.351562 45.53125 L 136.347656 48.871094 C 135.835938 48.078125 134.941406 47.550781 133.925781 47.550781 C 133.742188 47.550781 133.558594 47.570312 133.382812 47.605469 L 127.820312 34.542969 C 128.40625 34.179688 128.910156 33.6875 129.285156 33.105469 Z M 125.574219 35.230469 C 125.902344 35.21875 126.226562 35.167969 126.535156 35.089844 L 132.113281 48.195312 C 131.460938 48.722656 131.046875 49.527344 131.046875 50.433594 C 131.046875 51.257812 131.394531 52.003906 131.953125 52.527344 L 124.855469 67.496094 C 124.019531 67.152344 123.132812 66.902344 122.214844 66.753906 Z M 121.910156 33.707031 C 122.507812 34.367188 123.292969 34.851562 124.179688 35.082031 L 120.824219 66.605469 C 120.621094 66.59375 120.421875 66.589844 120.21875 66.589844 C 117.03125 66.589844 114.128906 67.796875 111.941406 69.785156 L 96.480469 54.578125 C 97.25 53.746094 97.722656 52.636719 97.722656 51.414062 C 97.722656 50.902344 97.636719 50.410156 97.484375 49.953125 Z M 65.195312 144.59375 C 65.503906 144.703125 65.832031 144.765625 66.175781 144.765625 C 66.863281 144.765625 67.488281 144.527344 67.984375 144.128906 L 82.199219 154.875 C 82.09375 155.128906 82.019531 155.402344 81.988281 155.6875 L 65.988281 157.871094 C 65.605469 156.851562 64.65625 156.101562 63.523438 156.015625 C 63.417969 152.390625 63.941406 148.550781 65.195312 144.59375 Z M 69.039062 141.554688 L 101.894531 134.03125 C 102.078125 134.496094 102.332031 134.925781 102.644531 135.300781 L 86.210938 153.460938 C 85.808594 153.242188 85.34375 153.121094 84.855469 153.121094 C 84.167969 153.121094 83.539062 153.363281 83.046875 153.761719 L 68.828125 143.015625 C 68.976562 142.667969 69.058594 142.285156 69.058594 141.886719 C 69.058594 141.773438 69.050781 141.664062 69.039062 141.554688 Z M 89.9375 183.683594 C 76.976562 182.367188 66.90625 173.652344 64.21875 161.613281 C 65.242188 161.265625 66.003906 160.359375 66.148438 159.261719 L 82.179688 157.074219 C 82.605469 158.136719 83.640625 158.886719 84.855469 158.886719 C 84.867188 158.886719 84.878906 158.882812 84.894531 158.882812 L 90.886719 181.492188 C 90.300781 182.019531 89.933594 182.78125 89.933594 183.628906 C 89.933594 183.648438 89.9375 183.667969 89.9375 183.683594 Z M 86.246094 158.527344 C 87.132812 158.035156 87.734375 157.089844 87.734375 156.003906 C 87.734375 155.410156 87.554688 154.855469 87.25 154.398438 L 103.691406 136.230469 C 103.910156 136.378906 104.148438 136.507812 104.394531 136.613281 L 92.84375 180.746094 L 92.816406 180.746094 C 92.585938 180.746094 92.367188 180.777344 92.152344 180.828125 Z M 95.6875 183.78125 C 95.691406 183.734375 95.695312 183.679688 95.695312 183.628906 C 95.695312 183.113281 95.5625 182.632812 95.328125 182.21875 L 109.867188 162.691406 C 110.191406 162.820312 110.546875 162.894531 110.914062 162.894531 C 111.972656 162.894531 112.894531 162.320312 113.398438 161.472656 L 127.167969 165.015625 C 127.222656 166.054688 127.605469 167.007812 128.226562 167.757812 C 121.636719 174.433594 112.863281 180.40625 101.484375 182.945312 C 99.515625 183.386719 97.582031 183.660156 95.6875 183.78125 Z M 108.035156 160.011719 C 108.035156 160.726562 108.296875 161.378906 108.726562 161.882812 L 94.347656 181.191406 C 94.296875 181.160156 94.25 181.128906 94.199219 181.101562 L 105.75 136.964844 C 105.910156 136.980469 106.074219 136.992188 106.242188 136.992188 L 106.257812 136.992188 L 109.742188 157.378906 C 108.734375 157.832031 108.035156 158.839844 108.035156 160.011719 Z M 106.242188 127.640625 C 105.667969 127.640625 105.125 127.75 104.621094 127.9375 L 94.273438 109.195312 C 94.8125 108.671875 95.148438 107.9375 95.148438 107.128906 C 95.148438 106.582031 94.992188 106.074219 94.726562 105.636719 L 112.0625 88.132812 C 113.316406 89.242188 114.800781 90.097656 116.425781 90.625 L 106.738281 127.667969 C 106.574219 127.652344 106.410156 127.640625 106.242188 127.640625 Z M 78.242188 71.378906 L 85.292969 62.496094 L 90.824219 55.527344 C 91.484375 55.886719 92.242188 56.089844 93.046875 56.089844 C 93.898438 56.089844 94.695312 55.859375 95.382812 55.460938 L 110.964844 70.785156 C 110.710938 71.070312 110.472656 71.363281 110.253906 71.675781 C 109.105469 73.253906 108.324219 75.117188 108.03125 77.136719 L 79.199219 74.621094 C 79.210938 74.492188 79.21875 74.363281 79.21875 74.230469 C 79.21875 73.15625 78.851562 72.167969 78.242188 71.378906 Z M 78.871094 75.996094 L 107.910156 78.53125 C 107.910156 78.65625 107.902344 78.78125 107.902344 78.90625 C 107.902344 80.1875 108.097656 81.421875 108.464844 82.585938 L 99.210938 86.074219 C 98.722656 85.183594 97.777344 84.585938 96.695312 84.585938 C 95.894531 84.585938 95.171875 84.914062 94.648438 85.4375 L 78.851562 76.054688 C 78.859375 76.035156 78.863281 76.015625 78.871094 75.996094 Z M 97.078125 90.320312 C 98.488281 90.132812 99.574219 88.929688 99.574219 87.46875 L 99.574219 87.429688 L 108.960938 83.894531 C 109.488281 85.089844 110.207031 86.1875 111.070312 87.148438 L 93.734375 104.65625 C 93.699219 104.632812 93.664062 104.609375 93.628906 104.589844 Z M 96.847656 48.699219 C 96.183594 47.773438 95.195312 47.097656 94.042969 46.847656 L 94.660156 35.804688 C 95.839844 35.582031 96.757812 34.644531 96.957031 33.457031 L 120.816406 31.621094 C 120.890625 31.941406 120.996094 32.25 121.132812 32.542969 Z M 68.960938 23.433594 C 69.195312 23.382812 69.433594 23.332031 69.671875 23.28125 C 74.175781 22.351562 78.925781 21.824219 83.878906 21.875 C 97.257812 22.007812 110.035156 25.359375 120.816406 29.515625 C 120.761719 29.746094 120.726562 29.984375 120.707031 30.226562 L 96.851562 32.0625 C 96.46875 30.921875 95.390625 30.09375 94.121094 30.09375 C 93.070312 30.09375 92.15625 30.65625 91.652344 31.496094 L 69.320312 24.714844 L 68.933594 24.597656 C 68.964844 24.375 68.988281 24.15625 68.988281 23.925781 C 68.988281 23.757812 68.976562 23.59375 68.960938 23.433594 Z M 68.527344 25.933594 L 69.023438 26.085938 L 91.246094 32.832031 C 91.242188 32.878906 91.238281 32.925781 91.238281 32.972656 C 91.238281 34.269531 92.09375 35.363281 93.265625 35.726562 L 92.648438 46.761719 C 91.554688 46.851562 90.570312 47.320312 89.824219 48.03125 L 68.785156 27.339844 L 68.09375 26.664062 C 68.261719 26.433594 68.402344 26.191406 68.527344 25.933594 Z M 60.105469 25.953125 C 60.542969 26.859375 61.261719 27.605469 62.15625 28.070312 L 56.28125 45.261719 C 56.203125 45.253906 56.121094 45.246094 56.039062 45.246094 C 54.941406 45.246094 53.988281 45.863281 53.5 46.769531 L 33.445312 44.328125 C 33.417969 43.339844 33.082031 42.4375 32.535156 41.695312 C 38.425781 36.875 48.027344 30.195312 60.105469 25.953125 Z M 70.726562 71.535156 L 33.011719 46.445312 C 33.117188 46.210938 33.207031 45.96875 33.277344 45.71875 L 53.15625 48.132812 C 53.160156 49.722656 54.453125 51.011719 56.039062 51.011719 C 56.394531 51.011719 56.734375 50.945312 57.046875 50.824219 L 71.089844 71.085938 C 70.960938 71.230469 70.839844 71.378906 70.726562 71.535156 Z M 72.179688 70.203125 L 58.199219 50.035156 C 58.648438 49.527344 58.921875 48.863281 58.921875 48.128906 C 58.921875 47.113281 58.398438 46.222656 57.605469 45.710938 L 63.476562 28.519531 C 63.75 28.570312 64.027344 28.601562 64.3125 28.601562 C 64.386719 28.601562 64.460938 28.59375 64.535156 28.585938 L 72.824219 69.886719 C 72.597656 69.976562 72.386719 70.082031 72.179688 70.203125 Z M 74.183594 69.574219 L 65.90625 28.316406 C 66.34375 28.15625 66.75 27.933594 67.113281 27.660156 L 68.515625 29.039062 L 88.960938 49.144531 C 88.585938 49.816406 88.371094 50.589844 88.371094 51.414062 C 88.371094 52.6875 88.882812 53.839844 89.707031 54.683594 L 84.070312 61.785156 L 77.230469 70.40625 C 76.46875 69.871094 75.546875 69.554688 74.542969 69.554688 C 74.421875 69.554688 74.304688 69.566406 74.183594 69.574219 Z M 77.117188 78.132812 C 77.492188 77.882812 77.824219 77.585938 78.113281 77.246094 L 93.933594 86.640625 C 93.855469 86.902344 93.8125 87.179688 93.8125 87.46875 C 93.8125 88.703125 94.585938 89.75 95.675781 90.160156 L 92.273438 104.25 L 92.265625 104.25 C 92.03125 104.25 91.804688 104.28125 91.585938 104.332031 Z M 82.410156 119.960938 C 86.003906 116.761719 88.816406 113.296875 90.925781 109.679688 C 91.328125 109.890625 91.78125 110.011719 92.265625 110.011719 C 92.542969 110.011719 92.808594 109.96875 93.0625 109.898438 L 103.398438 128.613281 C 102.285156 129.46875 101.566406 130.808594 101.566406 132.316406 C 101.566406 132.433594 101.574219 132.550781 101.582031 132.667969 L 68.535156 140.234375 C 68.230469 139.796875 67.808594 139.453125 67.316406 139.238281 C 70.328125 132.902344 75.230469 126.359375 82.410156 119.960938 Z M 128.425781 161.59375 C 127.902344 162.152344 127.511719 162.84375 127.316406 163.609375 L 113.792969 160.128906 C 113.792969 160.089844 113.796875 160.050781 113.796875 160.011719 C 113.796875 158.488281 112.617188 157.242188 111.117188 157.140625 L 107.640625 136.777344 C 107.960938 136.679688 108.265625 136.539062 108.550781 136.378906 Z M 108.652344 128.316406 C 108.472656 128.207031 108.285156 128.105469 108.089844 128.019531 L 117.78125 90.976562 C 118.570312 91.136719 119.382812 91.21875 120.21875 91.21875 C 121.578125 91.21875 122.886719 90.996094 124.109375 90.589844 L 128.359375 101.277344 C 127.632812 101.800781 127.160156 102.652344 127.160156 103.613281 C 127.160156 104.253906 127.371094 104.84375 127.722656 105.316406 Z M 129.449219 144.34375 L 110.621094 133.941406 C 110.808594 133.433594 110.914062 132.890625 110.914062 132.316406 C 110.914062 131.125 110.464844 130.035156 109.726562 129.210938 L 128.796875 106.210938 C 129.011719 106.3125 129.238281 106.394531 129.476562 106.441406 L 132.117188 142.632812 C 131.039062 142.875 130.101562 143.496094 129.449219 144.34375 Z M 143.523438 123.730469 C 140.0625 130.316406 136.640625 137.140625 134.246094 142.648438 C 134.011719 142.589844 133.765625 142.550781 133.511719 142.535156 L 130.875 106.375 C 131.09375 106.308594 131.296875 106.214844 131.492188 106.101562 L 142.152344 117 L 143.785156 118.671875 C 143.515625 119.113281 143.359375 119.625 143.359375 120.179688 C 143.359375 121.015625 143.714844 121.761719 144.28125 122.289062 C 144.027344 122.769531 143.773438 123.25 143.523438 123.730469 Z M 146.902344 117.378906 C 146.691406 117.328125 146.46875 117.296875 146.238281 117.296875 C 145.707031 117.296875 145.210938 117.441406 144.785156 117.695312 L 141.5 114.332031 L 132.492188 105.121094 C 132.710938 104.769531 132.855469 104.363281 132.902344 103.933594 L 137.960938 103.246094 L 152.945312 101.207031 C 153.21875 102.148438 153.785156 102.96875 154.535156 103.5625 C 152.691406 106.832031 149.914062 111.804688 146.902344 117.378906 Z M 153.75 97.015625 L 131.273438 84.335938 C 132.078125 82.699219 132.535156 80.855469 132.535156 78.90625 C 132.535156 77.671875 132.347656 76.480469 132.011719 75.355469 L 149.949219 68.828125 C 150.707031 70.214844 152.148438 71.167969 153.824219 71.25 L 156.265625 95.371094 C 155.253906 95.628906 154.375 96.214844 153.75 97.015625 Z M 153.75 97.015625 " fill-opacity="1" fill-rule="nonzero"/><path fill="#fff743" d="M 80.785156 47.210938 C 80.785156 47.40625 80.746094 47.597656 80.671875 47.777344 C 80.597656 47.960938 80.488281 48.121094 80.347656 48.261719 C 80.210938 48.402344 80.046875 48.507812 79.867188 48.585938 C 79.683594 48.660156 79.492188 48.699219 79.296875 48.699219 C 79.097656 48.699219 78.910156 48.660156 78.726562 48.585938 C 78.542969 48.507812 78.382812 48.402344 78.242188 48.261719 C 78.105469 48.121094 77.996094 47.960938 77.921875 47.777344 C 77.84375 47.597656 77.808594 47.40625 77.808594 47.210938 C 77.808594 47.011719 77.84375 46.820312 77.921875 46.640625 C 77.996094 46.457031 78.105469 46.296875 78.242188 46.15625 C 78.382812 46.015625 78.542969 45.910156 78.726562 45.832031 C 78.910156 45.757812 79.097656 45.71875 79.296875 45.71875 C 79.492188 45.71875 79.683594 45.757812 79.867188 45.832031 C 80.046875 45.910156 80.210938 46.015625 80.347656 46.15625 C 80.488281 46.296875 80.597656 46.457031 80.671875 46.640625 C 80.746094 46.820312 80.785156 47.011719 80.785156 47.210938 Z M 80.785156 47.210938 " fill-opacity="1" fill-rule="nonzero"/><path fill="#fff743" d="M 89.707031 26.273438 C 89.707031 26.492188 89.667969 26.703125 89.582031 26.90625 C 89.5 27.109375 89.378906 27.285156 89.222656 27.441406 C 89.070312 27.597656 88.890625 27.71875 88.6875 27.800781 C 88.484375 27.886719 88.273438 27.925781 88.054688 27.925781 C 87.832031 27.925781 87.621094 27.886719 87.417969 27.800781 C 87.21875 27.71875 87.039062 27.597656 86.882812 27.441406 C 86.726562 27.285156 86.609375 27.109375 86.523438 26.90625 C 86.441406 26.703125 86.398438 26.492188 86.398438 26.273438 C 86.398438 26.050781 86.441406 25.839844 86.523438 25.636719 C 86.609375 25.433594 86.726562 25.257812 86.882812 25.101562 C 87.039062 24.945312 87.21875 24.828125 87.417969 24.742188 C 87.621094 24.660156 87.832031 24.617188 88.054688 24.617188 C 88.273438 24.617188 88.484375 24.660156 88.6875 24.742188 C 88.890625 24.828125 89.070312 24.945312 89.222656 25.101562 C 89.378906 25.257812 89.5 25.433594 89.582031 25.636719 C 89.667969 25.839844 89.707031 26.050781 89.707031 26.273438 Z M 89.707031 26.273438 " fill-opacity="1" fill-rule="nonzero"/><path fill="#fff743" d="M 120.816406 12.847656 C 120.816406 13.144531 120.785156 13.4375 120.726562 13.730469 C 120.671875 14.019531 120.585938 14.304688 120.472656 14.578125 C 120.359375 14.851562 120.21875 15.113281 120.054688 15.359375 C 119.890625 15.605469 119.703125 15.832031 119.492188 16.042969 C 119.28125 16.253906 119.054688 16.441406 118.808594 16.605469 C 118.558594 16.769531 118.300781 16.910156 118.023438 17.023438 C 117.75 17.136719 117.46875 17.222656 117.175781 17.28125 C 116.886719 17.339844 116.59375 17.367188 116.296875 17.367188 C 116 17.367188 115.703125 17.339844 115.414062 17.28125 C 115.121094 17.222656 114.839844 17.136719 114.566406 17.023438 C 114.292969 16.910156 114.03125 16.769531 113.785156 16.605469 C 113.539062 16.441406 113.308594 16.253906 113.101562 16.042969 C 112.890625 15.832031 112.703125 15.605469 112.539062 15.359375 C 112.371094 15.113281 112.234375 14.851562 112.121094 14.578125 C 112.007812 14.304688 111.921875 14.019531 111.863281 13.730469 C 111.804688 13.4375 111.777344 13.144531 111.777344 12.847656 C 111.777344 12.550781 111.804688 12.257812 111.863281 11.964844 C 111.921875 11.675781 112.007812 11.390625 112.121094 11.117188 C 112.234375 10.84375 112.371094 10.582031 112.539062 10.335938 C 112.703125 10.089844 112.890625 9.859375 113.101562 9.652344 C 113.308594 9.441406 113.539062 9.253906 113.785156 9.089844 C 114.03125 8.925781 114.292969 8.785156 114.566406 8.671875 C 114.839844 8.558594 115.121094 8.472656 115.414062 8.414062 C 115.703125 8.355469 116 8.328125 116.296875 8.328125 C 116.59375 8.328125 116.886719 8.355469 117.175781 8.414062 C 117.46875 8.472656 117.75 8.558594 118.023438 8.671875 C 118.300781 8.785156 118.558594 8.925781 118.808594 9.089844 C 119.054688 9.253906 119.28125 9.441406 119.492188 9.652344 C 119.703125 9.859375 119.890625 10.089844 120.054688 10.335938 C 120.21875 10.582031 120.359375 10.84375 120.472656 11.117188 C 120.585938 11.390625 120.671875 11.675781 120.726562 11.964844 C 120.785156 12.257812 120.816406 12.550781 120.816406 12.847656 Z M 120.816406 12.847656 " fill-opacity="1" fill-rule="nonzero"/><path fill="#fff743" d="M 174.652344 43.375 C 174.652344 43.554688 174.617188 43.734375 174.546875 43.902344 C 174.476562 44.070312 174.378906 44.21875 174.246094 44.351562 C 174.117188 44.480469 173.96875 44.578125 173.800781 44.648438 C 173.628906 44.71875 173.453125 44.753906 173.273438 44.753906 C 173.089844 44.753906 172.914062 44.71875 172.742188 44.648438 C 172.574219 44.578125 172.425781 44.480469 172.296875 44.351562 C 172.164062 44.21875 172.066406 44.070312 171.996094 43.902344 C 171.925781 43.734375 171.890625 43.554688 171.890625 43.375 C 171.890625 43.191406 171.925781 43.015625 171.996094 42.84375 C 172.066406 42.675781 172.164062 42.527344 172.296875 42.398438 C 172.425781 42.265625 172.574219 42.167969 172.742188 42.097656 C 172.914062 42.027344 173.089844 41.992188 173.273438 41.992188 C 173.453125 41.992188 173.632812 42.027344 173.800781 42.097656 C 173.96875 42.167969 174.117188 42.265625 174.246094 42.398438 C 174.378906 42.527344 174.476562 42.675781 174.546875 42.84375 C 174.617188 43.015625 174.652344 43.191406 174.652344 43.375 Z M 174.652344 43.375 " fill-opacity="1" fill-rule="nonzero"/><path fill="#fff743" d="M 167.683594 65.042969 C 167.683594 65.175781 167.660156 65.304688 167.609375 65.429688 C 167.558594 65.550781 167.484375 65.660156 167.390625 65.753906 C 167.296875 65.851562 167.1875 65.921875 167.0625 65.972656 C 166.9375 66.023438 166.8125 66.050781 166.675781 66.050781 C 166.542969 66.050781 166.414062 66.023438 166.292969 65.972656 C 166.167969 65.921875 166.058594 65.851562 165.964844 65.753906 C 165.871094 65.660156 165.796875 65.550781 165.746094 65.429688 C 165.695312 65.304688 165.667969 65.175781 165.667969 65.042969 C 165.667969 64.910156 165.695312 64.78125 165.746094 64.65625 C 165.796875 64.53125 165.871094 64.421875 165.964844 64.328125 C 166.058594 64.234375 166.167969 64.160156 166.292969 64.109375 C 166.414062 64.058594 166.542969 64.035156 166.675781 64.035156 C 166.8125 64.035156 166.9375 64.058594 167.0625 64.109375 C 167.1875 64.160156 167.296875 64.234375 167.390625 64.328125 C 167.484375 64.421875 167.558594 64.53125 167.609375 64.65625 C 167.660156 64.78125 167.683594 64.910156 167.683594 65.042969 Z M 167.683594 65.042969 " fill-opacity="1" fill-rule="nonzero"/><path fill="#fff743" d="M 146.550781 24.617188 C 146.550781 24.863281 146.503906 25.09375 146.410156 25.320312 C 146.316406 25.542969 146.183594 25.742188 146.011719 25.914062 C 145.839844 26.085938 145.644531 26.21875 145.417969 26.3125 C 145.195312 26.40625 144.960938 26.449219 144.71875 26.449219 C 144.476562 26.449219 144.242188 26.40625 144.015625 26.3125 C 143.792969 26.21875 143.59375 26.085938 143.421875 25.914062 C 143.25 25.742188 143.117188 25.542969 143.023438 25.320312 C 142.933594 25.09375 142.886719 24.863281 142.886719 24.617188 C 142.886719 24.375 142.933594 24.140625 143.023438 23.917969 C 143.117188 23.695312 143.25 23.496094 143.421875 23.324219 C 143.59375 23.152344 143.792969 23.019531 144.015625 22.925781 C 144.242188 22.832031 144.476562 22.785156 144.71875 22.785156 C 144.960938 22.785156 145.195312 22.832031 145.417969 22.925781 C 145.644531 23.019531 145.839844 23.152344 146.011719 23.324219 C 146.183594 23.496094 146.316406 23.695312 146.410156 23.917969 C 146.503906 24.140625 146.550781 24.375 146.550781 24.617188 Z M 146.550781 24.617188 " fill-opacity="1" fill-rule="nonzero"/><path fill="#fff743" d="M 170.664062 85.554688 C 170.664062 85.902344 170.601562 86.234375 170.46875 86.554688 C 170.335938 86.871094 170.148438 87.15625 169.902344 87.398438 C 169.65625 87.644531 169.375 87.832031 169.054688 87.964844 C 168.734375 88.097656 168.402344 88.164062 168.058594 88.164062 C 167.710938 88.164062 167.378906 88.097656 167.058594 87.964844 C 166.738281 87.832031 166.457031 87.644531 166.214844 87.398438 C 165.96875 87.15625 165.78125 86.871094 165.648438 86.554688 C 165.515625 86.234375 165.449219 85.902344 165.449219 85.554688 C 165.449219 85.207031 165.515625 84.875 165.648438 84.558594 C 165.78125 84.238281 165.96875 83.953125 166.214844 83.710938 C 166.457031 83.464844 166.738281 83.277344 167.058594 83.144531 C 167.378906 83.011719 167.710938 82.945312 168.058594 82.945312 C 168.402344 82.945312 168.734375 83.011719 169.054688 83.144531 C 169.375 83.277344 169.65625 83.464844 169.902344 83.710938 C 170.148438 83.953125 170.335938 84.238281 170.46875 84.558594 C 170.601562 84.875 170.664062 85.207031 170.664062 85.554688 Z M 170.664062 85.554688 " fill-opacity="1" fill-rule="nonzero"/><path fill="#fff743" d="M 154.535156 142.84375 C 154.535156 143.144531 154.476562 143.433594 154.363281 143.710938 C 154.25 143.988281 154.085938 144.230469 153.875 144.441406 C 153.660156 144.65625 153.417969 144.816406 153.140625 144.933594 C 152.863281 145.046875 152.574219 145.105469 152.277344 145.105469 C 151.976562 145.105469 151.6875 145.046875 151.410156 144.933594 C 151.132812 144.816406 150.890625 144.65625 150.679688 144.441406 C 150.464844 144.230469 150.304688 143.988281 150.1875 143.710938 C 150.074219 143.433594 150.015625 143.144531 150.015625 142.84375 C 150.015625 142.546875 150.074219 142.257812 150.1875 141.980469 C 150.304688 141.703125 150.464844 141.457031 150.679688 141.246094 C 150.890625 141.035156 151.132812 140.871094 151.410156 140.757812 C 151.6875 140.640625 151.976562 140.585938 152.277344 140.585938 C 152.574219 140.585938 152.863281 140.640625 153.140625 140.757812 C 153.417969 140.871094 153.660156 141.035156 153.875 141.246094 C 154.085938 141.457031 154.25 141.703125 154.363281 141.980469 C 154.476562 142.257812 154.535156 142.546875 154.535156 142.84375 Z M 154.535156 142.84375 " fill-opacity="1" fill-rule="nonzero"/><path fill="#fff743" d="M 121.136719 102.152344 C 121.136719 102.34375 121.097656 102.53125 121.023438 102.710938 C 120.949219 102.886719 120.84375 103.042969 120.707031 103.179688 C 120.574219 103.316406 120.414062 103.421875 120.238281 103.496094 C 120.058594 103.570312 119.875 103.605469 119.679688 103.605469 C 119.488281 103.605469 119.300781 103.570312 119.125 103.496094 C 118.945312 103.421875 118.789062 103.316406 118.652344 103.179688 C 118.515625 103.042969 118.410156 102.886719 118.335938 102.710938 C 118.261719 102.53125 118.226562 102.34375 118.226562 102.152344 C 118.226562 101.960938 118.261719 101.773438 118.335938 101.59375 C 118.410156 101.417969 118.515625 101.261719 118.652344 101.125 C 118.789062 100.988281 118.945312 100.882812 119.125 100.808594 C 119.300781 100.734375 119.488281 100.699219 119.679688 100.699219 C 119.875 100.699219 120.058594 100.734375 120.238281 100.808594 C 120.414062 100.882812 120.574219 100.988281 120.707031 101.125 C 120.84375 101.261719 120.949219 101.417969 121.023438 101.59375 C 121.097656 101.773438 121.136719 101.960938 121.136719 102.152344 Z M 121.136719 102.152344 " fill-opacity="1" fill-rule="nonzero"/><path fill="#fff743" d="M 126.117188 125.34375 C 126.117188 125.613281 126.023438 125.839844 125.835938 126.03125 C 125.644531 126.21875 125.417969 126.3125 125.148438 126.3125 C 124.882812 126.3125 124.652344 126.21875 124.464844 126.03125 C 124.277344 125.839844 124.179688 125.613281 124.179688 125.34375 C 124.179688 125.078125 124.277344 124.847656 124.464844 124.660156 C 124.652344 124.46875 124.882812 124.375 125.148438 124.375 C 125.417969 124.375 125.644531 124.46875 125.835938 124.660156 C 126.023438 124.847656 126.117188 125.078125 126.117188 125.34375 Z M 126.117188 125.34375 " fill-opacity="1" fill-rule="nonzero"/><path fill="#fff743" d="M 89.707031 126.03125 C 89.707031 126.25 89.667969 126.460938 89.582031 126.664062 C 89.5 126.867188 89.378906 127.046875 89.222656 127.203125 C 89.070312 127.355469 88.890625 127.476562 88.6875 127.558594 C 88.484375 127.644531 88.273438 127.6875 88.054688 127.6875 C 87.832031 127.6875 87.621094 127.644531 87.417969 127.558594 C 87.21875 127.476562 87.039062 127.355469 86.882812 127.203125 C 86.726562 127.046875 86.609375 126.867188 86.523438 126.664062 C 86.441406 126.460938 86.398438 126.25 86.398438 126.03125 C 86.398438 125.8125 86.441406 125.601562 86.523438 125.398438 C 86.609375 125.195312 86.726562 125.015625 86.882812 124.859375 C 87.039062 124.707031 87.21875 124.585938 87.417969 124.5 C 87.621094 124.417969 87.832031 124.375 88.054688 124.375 C 88.273438 124.375 88.484375 124.417969 88.6875 124.5 C 88.890625 124.585938 89.070312 124.707031 89.222656 124.859375 C 89.378906 125.015625 89.5 125.195312 89.582031 125.398438 C 89.667969 125.601562 89.707031 125.8125 89.707031 126.03125 Z M 89.707031 126.03125 " fill-opacity="1" fill-rule="nonzero"/><path fill="#fff743" d="M 116.425781 51.6875 C 116.425781 51.996094 116.367188 52.292969 116.25 52.578125 C 116.132812 52.863281 115.964844 53.117188 115.746094 53.332031 C 115.527344 53.550781 115.277344 53.71875 114.992188 53.839844 C 114.707031 53.957031 114.410156 54.015625 114.101562 54.015625 C 113.792969 54.015625 113.496094 53.957031 113.210938 53.839844 C 112.925781 53.71875 112.675781 53.550781 112.457031 53.332031 C 112.238281 53.117188 112.070312 52.863281 111.953125 52.578125 C 111.835938 52.292969 111.777344 51.996094 111.777344 51.6875 C 111.777344 51.378906 111.835938 51.085938 111.953125 50.800781 C 112.070312 50.515625 112.238281 50.261719 112.457031 50.042969 C 112.675781 49.828125 112.925781 49.660156 113.210938 49.539062 C 113.496094 49.421875 113.792969 49.363281 114.101562 49.363281 C 114.410156 49.363281 114.707031 49.421875 114.992188 49.539062 C 115.277344 49.660156 115.527344 49.828125 115.746094 50.042969 C 115.964844 50.261719 116.132812 50.515625 116.25 50.800781 C 116.367188 51.085938 116.425781 51.378906 116.425781 51.6875 Z M 116.425781 51.6875 " fill-opacity="1" fill-rule="nonzero"/><path fill="#fff743" d="M 170.886719 19.25 C 170.886719 19.675781 170.804688 20.082031 170.644531 20.476562 C 170.480469 20.867188 170.25 21.214844 169.949219 21.511719 C 169.648438 21.8125 169.304688 22.046875 168.910156 22.207031 C 168.519531 22.371094 168.109375 22.453125 167.683594 22.453125 C 167.261719 22.453125 166.851562 22.371094 166.460938 22.207031 C 166.066406 22.046875 165.722656 21.8125 165.421875 21.511719 C 165.121094 21.214844 164.890625 20.867188 164.726562 20.476562 C 164.5625 20.082031 164.484375 19.675781 164.484375 19.25 C 164.484375 18.824219 164.5625 18.417969 164.726562 18.023438 C 164.890625 17.632812 165.121094 17.285156 165.421875 16.984375 C 165.722656 16.683594 166.066406 16.453125 166.460938 16.289062 C 166.851562 16.128906 167.261719 16.046875 167.683594 16.046875 C 168.109375 16.046875 168.519531 16.128906 168.910156 16.289062 C 169.304688 16.453125 169.648438 16.683594 169.949219 16.984375 C 170.25 17.285156 170.480469 17.632812 170.644531 18.023438 C 170.804688 18.417969 170.886719 18.824219 170.886719 19.25 Z M 170.886719 19.25 " fill-opacity="1" fill-rule="nonzero"/><g mask="url(#5cf1697f48)"><g transform="matrix(1, 0, 0, 1, 2, 69)"><g clip-path="url(#6453caa118)"><g clip-path="url(#ecc8783956)"><path fill="#fff743" d="M 46.917969 143.992188 C 48.261719 142.191406 68.730469 114.273438 49.71875 111.988281 C 49.257812 111.933594 48.769531 111.894531 48.257812 111.871094 C 26.074219 110.816406 17.207031 110.863281 20.671875 98.28125 C 22.839844 90.417969 20.089844 86.914062 17.722656 85.390625 C 16.570312 84.65625 16.480469 82.996094 17.507812 82.09375 L 21.441406 78.632812 L 16.300781 77.3125 C 14.226562 76.78125 13.101562 74.519531 13.957031 72.554688 C 15 70.144531 15.617188 67.234375 13.222656 66.179688 C 10.863281 65.132812 6.652344 63.753906 3.289062 62.703125 C 0.910156 61.960938 0.0507812 59.046875 1.644531 57.132812 C 7.15625 50.535156 17.519531 37.449219 19.386719 30.351562 C 21.25 23.277344 17.109375 10.671875 15.078125 0.996094 C 15.074219 0.988281 15.074219 0.984375 15.074219 0.980469 C 15.074219 0.980469 15.078125 0.980469 15.082031 0.980469 L 46.207031 9.027344 L 57.421875 11.921875 C 60.066406 12.601562 62.398438 14.171875 64.03125 16.363281 L 64.246094 16.644531 L 77.757812 34.214844 C 78.882812 35.679688 79.121094 37.640625 78.375 39.332031 L 73.507812 50.386719 C 73.507812 50.386719 29.648438 93.511719 61.507812 110.289062 C 93.371094 127.0625 105.421875 110.785156 136.796875 115.570312 C 108.496094 115.835938 78.84375 123.535156 46.851562 144.085938 C 46.851562 144.082031 46.855469 144.074219 46.859375 144.074219 Z M 46.917969 143.992188 " fill-opacity="1" fill-rule="nonzero"/></g></g></g></g><g mask="url(#4d82a9093e)"><g transform="matrix(1, 0, 0, 1, 2, 69)"><g clip-path="url(#e8de8a7cab)"><g clip-path="url(#9d067080b2)"><path fill="#000000" d="M 58.988281 65.03125 C 45.488281 90.898438 46.679688 104.9375 49.71875 111.988281 C 49.257812 111.933594 48.769531 111.894531 48.257812 111.871094 C 26.074219 110.816406 17.207031 110.863281 20.671875 98.28125 C 22.839844 90.417969 20.089844 86.914062 17.722656 85.390625 C 16.570312 84.65625 16.480469 82.996094 17.507812 82.09375 L 21.441406 78.632812 L 16.300781 77.3125 C 14.226562 76.78125 13.101562 74.519531 13.957031 72.554688 C 15 70.144531 15.617188 67.234375 13.222656 66.179688 C 10.863281 65.132812 6.652344 63.753906 3.289062 62.703125 C 0.910156 61.960938 0.0507812 59.046875 1.644531 57.132812 C 7.15625 50.535156 17.519531 37.449219 19.386719 30.351562 C 21.25 23.277344 17.109375 10.671875 15.078125 0.996094 C 15.074219 0.988281 15.074219 0.984375 15.074219 0.980469 C 15.074219 0.980469 15.078125 0.980469 15.082031 0.980469 L 46.207031 9.027344 L 57.421875 11.921875 C 60.066406 12.601562 62.398438 14.171875 64.03125 16.363281 L 64.246094 16.644531 C 68.992188 25.007812 71.949219 40.191406 58.988281 65.03125 Z M 58.988281 65.03125 " fill-opacity="1" fill-rule="nonzero"/></g></g></g></g><g mask="url(#034ad9295c)"><g transform="matrix(1, 0, 0, 1, 2, 69)"><g clip-path="url(#a0ac3c70c3)"><g clip-path="url(#67ea1defa4)"><path fill="#fff743" d="M 46.917969 143.992188 C 48.292969 142.144531 69.738281 112.898438 48.257812 111.871094 C 26.074219 110.816406 17.207031 110.863281 20.671875 98.28125 C 22.839844 90.417969 20.089844 86.914062 17.722656 85.390625 C 16.570312 84.65625 16.480469 82.996094 17.507812 82.09375 L 21.441406 78.632812 L 16.300781 77.3125 C 14.226562 76.78125 13.101562 74.519531 13.957031 72.554688 C 15 70.144531 15.617188 67.234375 13.222656 66.179688 C 10.863281 65.132812 6.652344 63.753906 3.289062 62.703125 C 0.910156 61.960938 0.0507812 59.046875 1.644531 57.132812 C 7.15625 50.535156 17.519531 37.449219 19.386719 30.351562 C 21.25 23.277344 17.109375 10.671875 15.078125 0.996094 C 15.074219 0.988281 15.074219 0.984375 15.074219 0.980469 C 15.074219 0.980469 15.078125 0.980469 15.082031 0.980469 L 46.207031 9.027344 L 50.257812 15.230469 C 57.671875 26.585938 58.566406 41.011719 52.605469 53.195312 L 45.824219 67.054688 C 37.910156 83.234375 45.765625 102.707031 62.691406 108.867188 C 69.988281 111.523438 71.882812 120.964844 66.175781 126.230469 Z M 46.917969 143.992188 " fill-opacity="1" fill-rule="nonzero"/></g></g></g></g><g mask="url(#d8c8e7f240)"><g transform="matrix(1, 0, 0, 1, 26, 51)"><g clip-path="url(#6e6db26bfd)"><g clip-path="url(#75bd17857e)"><path fill="#000000" d="M 57.355469 57.371094 C 58.5625 55.675781 58.605469 53.414062 57.464844 51.671875 L 42.890625 29.414062 C 41.855469 27.832031 40.457031 26.515625 38.816406 25.578125 L 1.039062 3.984375 C 4.742188 2.402344 8.375 1.214844 11.914062 0.386719 L 44.359375 23.945312 C 45.3125 24.632812 46.085938 25.535156 46.628906 26.578125 L 59.046875 50.550781 C 60.5 53.351562 60.054688 56.757812 57.933594 59.097656 L 49.507812 68.382812 Z M 57.355469 57.371094 " fill-opacity="1" fill-rule="nonzero"/></g></g></g></g><path fill="#fff743" d="M 83.355469 108.371094 C 84.5625 106.675781 84.605469 104.414062 83.464844 102.671875 L 68.890625 80.414062 C 67.855469 78.832031 66.457031 77.515625 64.816406 76.578125 L 27.039062 54.984375 C 30.742188 53.402344 34.375 52.214844 37.914062 51.386719 L 70.359375 74.945312 C 71.3125 75.632812 72.085938 76.535156 72.628906 77.578125 L 85.046875 101.550781 C 86.5 104.351562 86.054688 107.757812 83.933594 110.097656 L 75.507812 119.382812 Z M 83.355469 108.371094 " fill-opacity="1" fill-rule="nonzero"/><g mask="url(#4895d894e4)"><g transform="matrix(1, 0, 0, 1, 2, 69)"><g clip-path="url(#9bffd8adc7)"><g clip-path="url(#c867542e68)"><path fill="#fff743" d="M 63.703125 120.632812 C 63.703125 123.109375 62.855469 125.621094 61.050781 127.699219 L 46.917969 143.992188 C 48.097656 142.40625 64.058594 120.644531 54.988281 113.855469 C 54.445312 113.445312 53.808594 113.089844 53.070312 112.796875 C 51.785156 112.285156 50.195312 111.964844 48.257812 111.871094 C 26.074219 110.816406 17.207031 110.863281 20.671875 98.28125 C 22.839844 90.417969 20.089844 86.914062 17.722656 85.390625 C 16.570312 84.65625 16.480469 82.996094 17.507812 82.09375 L 21.441406 78.632812 L 16.300781 77.3125 C 14.226562 76.78125 13.101562 74.519531 13.957031 72.554688 C 15 70.144531 15.617188 67.234375 13.222656 66.179688 C 10.863281 65.132812 6.652344 63.753906 3.289062 62.703125 C 0.910156 61.960938 0.0507812 59.046875 1.644531 57.132812 C 5.871094 52.070312 12.957031 43.191406 16.871094 36.121094 C 18.058594 33.980469 18.953125 32.003906 19.386719 30.351562 C 21.25 23.277344 17.109375 10.671875 15.078125 0.996094 C 15.074219 0.988281 15.074219 0.984375 15.074219 0.980469 C 15.078125 0.980469 15.082031 0.980469 15.082031 0.980469 L 29.886719 19.410156 C 38.859375 30.574219 41.859375 45.398438 37.925781 59.171875 L 35.144531 68.917969 C 30.140625 86.441406 39.789062 104.804688 57.058594 110.628906 C 61.316406 112.410156 63.703125 116.476562 63.703125 120.632812 Z M 63.703125 120.632812 " fill-opacity="1" fill-rule="nonzero"/></g></g></g></g><path fill="#fff743" d="M 55.070312 181.796875 C 53.785156 181.285156 52.195312 180.964844 50.257812 180.871094 C 28.074219 179.816406 19.207031 179.863281 22.671875 167.28125 C 24.839844 159.417969 22.089844 155.914062 19.722656 154.390625 C 18.570312 153.65625 18.480469 151.996094 19.507812 151.09375 L 23.441406 147.632812 L 18.300781 146.3125 C 16.226562 145.78125 15.101562 143.519531 15.957031 141.554688 C 17 139.144531 17.617188 136.234375 15.222656 135.179688 C 12.863281 134.132812 8.652344 132.753906 5.289062 131.703125 C 2.910156 130.960938 2.050781 128.046875 3.644531 126.132812 C 7.871094 121.070312 14.957031 112.191406 18.871094 105.121094 C 24.964844 113.1875 28.425781 123.03125 28.628906 133.289062 L 28.839844 143.976562 C 29.125 158.597656 37.195312 171.953125 50.003906 179.007812 Z M 55.070312 181.796875 " fill-opacity="1" fill-rule="nonzero"/><g mask="url(#1df6a40a9f)"><g transform="matrix(1, 0, 0, 1, 68, 20)"><g clip-path="url(#86f4e8e04a)"><g clip-path="url(#feaa619ca7)"><path fill="#fff743" d="M 89.65625 75.230469 L 87.214844 51.113281 C 89.234375 50.597656 90.726562 48.769531 90.726562 46.589844 C 90.726562 44.082031 88.757812 42.046875 86.28125 41.925781 L 84.929688 28.535156 C 86.117188 27.988281 86.921875 26.738281 86.796875 25.316406 C 86.667969 23.792969 85.441406 22.542969 83.925781 22.386719 C 83.121094 22.304688 82.367188 22.519531 81.761719 22.929688 C 78.460938 20.703125 72.132812 16.710938 63.847656 12.730469 C 63.207031 12.421875 62.550781 12.113281 61.871094 11.800781 C 62.097656 10.972656 62.125 10.066406 61.792969 9.105469 C 61.171875 7.308594 59.53125 6.007812 57.636719 5.898438 C 55.808594 5.796875 54.195312 6.746094 53.339844 8.195312 C 42.824219 4.160156 29.722656 0.613281 15.894531 0.476562 C 11.324219 0.4375 6.710938 0.882812 2.074219 1.808594 C 1.933594 2.292969 1.796875 2.785156 1.671875 3.28125 C 6.175781 2.351562 10.925781 1.824219 15.878906 1.875 C 29.257812 2.007812 42.035156 5.359375 52.816406 9.515625 C 52.761719 9.746094 52.726562 9.984375 52.707031 10.226562 L 28.851562 12.0625 C 28.46875 10.921875 27.390625 10.09375 26.121094 10.09375 C 25.070312 10.09375 24.15625 10.65625 23.652344 11.496094 L 1.320312 4.714844 C 1.214844 5.167969 1.113281 5.625 1.023438 6.085938 L 23.246094 12.832031 C 23.242188 12.878906 23.238281 12.925781 23.238281 12.972656 C 23.238281 14.269531 24.09375 15.363281 25.265625 15.726562 L 24.648438 26.761719 C 23.554688 26.851562 22.570312 27.320312 21.824219 28.03125 L 0.785156 7.339844 C 0.683594 7.90625 0.59375 8.46875 0.515625 9.039062 L 20.960938 29.144531 C 20.585938 29.816406 20.371094 30.589844 20.371094 31.414062 C 20.371094 32.6875 20.882812 33.839844 21.707031 34.683594 L 16.070312 41.785156 C 16.46875 42.023438 16.875 42.261719 17.292969 42.496094 L 22.824219 35.527344 C 23.484375 35.886719 24.242188 36.089844 25.046875 36.089844 C 25.898438 36.089844 26.695312 35.859375 27.382812 35.460938 L 42.964844 50.785156 C 42.710938 51.070312 42.476562 51.363281 42.253906 51.675781 C 50.171875 55.214844 56.410156 60.617188 61.296875 67.21875 C 61.773438 66.703125 62.203125 66.144531 62.582031 65.550781 L 85.058594 78.230469 C 84.871094 78.726562 84.765625 79.261719 84.757812 79.820312 L 69.425781 81.90625 C 69.605469 82.351562 69.785156 82.796875 69.960938 83.246094 L 84.945312 81.207031 C 85.21875 82.148438 85.785156 82.96875 86.535156 83.5625 C 84.691406 86.832031 81.914062 91.804688 78.902344 97.378906 C 78.691406 97.328125 78.46875 97.296875 78.238281 97.296875 C 77.707031 97.296875 77.210938 97.441406 76.785156 97.695312 L 73.5 94.332031 C 73.726562 95.21875 73.945312 96.105469 74.152344 97 C 74.667969 99.222656 75.125 101.472656 75.523438 103.730469 C 75.65625 104.488281 75.78125 105.246094 75.90625 106.011719 C 76.433594 104.992188 76.972656 103.972656 77.503906 102.964844 C 78.070312 103.113281 78.703125 103.113281 79.375 102.8125 C 80.347656 102.375 81.042969 101.441406 81.113281 100.375 C 81.175781 99.4375 80.785156 98.589844 80.144531 98.019531 C 83.140625 92.46875 85.910156 87.515625 87.75 84.253906 C 88.421875 84.511719 89.164062 84.625 89.945312 84.539062 C 92.21875 84.28125 94.015625 82.355469 94.097656 80.066406 C 94.191406 77.484375 92.1875 75.355469 89.65625 75.230469 Z M 83.550781 28.832031 L 84.890625 42.0625 C 84.132812 42.257812 83.449219 42.640625 82.890625 43.15625 L 68.542969 31.636719 C 68.710938 31.269531 68.808594 30.863281 68.808594 30.433594 C 68.808594 30.351562 68.804688 30.277344 68.796875 30.199219 L 80.625 26.910156 C 81.125 28.03125 82.246094 28.820312 83.550781 28.832031 Z M 61.285156 13.105469 C 70.335938 17.289062 77.234375 21.589844 80.792969 23.96875 C 80.523438 24.429688 80.363281 24.960938 80.351562 25.53125 L 68.347656 28.871094 C 67.835938 28.078125 66.941406 27.550781 65.925781 27.550781 C 65.742188 27.550781 65.558594 27.570312 65.382812 27.605469 L 59.820312 14.542969 C 60.40625 14.179688 60.910156 13.6875 61.285156 13.105469 Z M 26.042969 26.847656 L 26.660156 15.804688 C 27.839844 15.582031 28.757812 14.644531 28.957031 13.457031 L 52.816406 11.621094 C 52.890625 11.941406 52.996094 12.25 53.132812 12.542969 L 28.847656 28.699219 C 28.183594 27.773438 27.195312 27.097656 26.042969 26.847656 Z M 52.21875 46.589844 C 49.03125 46.589844 46.128906 47.796875 43.941406 49.785156 L 28.480469 34.578125 C 29.25 33.746094 29.722656 32.636719 29.722656 31.414062 C 29.722656 30.902344 29.636719 30.410156 29.484375 29.953125 L 53.910156 13.707031 C 54.507812 14.367188 55.292969 14.851562 56.179688 15.082031 L 52.824219 46.605469 C 52.621094 46.59375 52.421875 46.589844 52.21875 46.589844 Z M 54.214844 46.753906 L 57.574219 15.230469 C 57.902344 15.21875 58.226562 15.167969 58.535156 15.089844 L 64.113281 28.195312 C 63.460938 28.722656 63.046875 29.527344 63.046875 30.433594 C 63.046875 31.257812 63.394531 32.003906 63.953125 32.527344 L 56.855469 47.496094 C 56.019531 47.152344 55.132812 46.902344 54.214844 46.753906 Z M 58.117188 48.09375 L 65.175781 33.210938 C 65.414062 33.277344 65.667969 33.316406 65.925781 33.316406 C 66.582031 33.316406 67.183594 33.09375 67.667969 32.726562 L 82.011719 44.242188 C 81.613281 44.933594 81.378906 45.734375 81.378906 46.589844 C 81.378906 46.90625 81.410156 47.214844 81.46875 47.511719 L 63.535156 54.042969 C 62.441406 51.503906 60.527344 49.410156 58.117188 48.09375 Z M 85.75 77.015625 L 63.273438 64.335938 C 64.078125 62.699219 64.535156 60.855469 64.535156 58.90625 C 64.535156 57.671875 64.347656 56.480469 64.011719 55.355469 L 81.949219 48.828125 C 82.707031 50.214844 84.148438 51.167969 85.824219 51.25 L 88.265625 75.371094 C 87.253906 75.628906 86.375 76.214844 85.75 77.015625 Z M 85.75 77.015625 " fill-opacity="1" fill-rule="nonzero"/></g></g></g></g><g fill="#ed3c6b" fill-opacity="1"><g transform="translate(172.07466, 166.160206)"><g><path d="M 94.046875 -115.53125 L 94.046875 -30.703125 L 56.3125 -115.53125 Z M 94.046875 0 L 52.953125 0 L 5.15625 -108.109375 L 5.15625 -115.53125 L 48.109375 -115.53125 L 94.046875 -8.828125 Z M 5.15625 0 L 5.15625 -84.75 L 43.03125 0 Z M 5.15625 0 "/></g></g></g><g fill="#ed3c6b" fill-opacity="1"><g transform="translate(271.269552, 166.160206)"><g><path d="M 56 -115.453125 C 56.675781 -115.554688 57.390625 -115.617188 58.140625 -115.640625 C 58.898438 -115.671875 59.984375 -115.6875 61.390625 -115.6875 C 73.992188 -115.6875 83.273438 -112.9375 89.234375 -107.4375 C 95.203125 -101.945312 98.1875 -93.5 98.1875 -82.09375 C 98.1875 -70.582031 95.191406 -62.066406 89.203125 -56.546875 C 83.210938 -51.023438 73.941406 -48.265625 61.390625 -48.265625 C 59.984375 -48.265625 58.898438 -48.273438 58.140625 -48.296875 C 57.390625 -48.328125 56.675781 -48.394531 56 -48.5 Z M 5.15625 0 L 5.15625 -115.53125 L 46.234375 -115.53125 L 46.234375 0 Z M 5.15625 0 "/></g></g></g><path stroke-linecap="round" transform="matrix(0.75, 0, 0, 0.75, 178.199582, 184.507459)" fill="none" stroke-linejoin="miter" d="M 1.999516 2.000471 L 240.249525 2.000471 " stroke="#ed3c6b" stroke-width="4" stroke-opacity="1" stroke-miterlimit="4"/><path fill="#fefefe" d="M 304.449219 209.074219 L 304.449219 203.054688 L 301.789062 203.054688 L 301.789062 197.699219 L 299.125 197.699219 L 299.125 192.347656 L 296.464844 192.347656 L 296.464844 186.328125 L 293.136719 186.328125 L 293.136719 183.652344 L 290.472656 183.652344 L 290.472656 178.300781 L 296.464844 178.300781 L 296.464844 180.976562 L 299.125 180.976562 L 299.125 189.003906 L 301.789062 189.003906 L 301.789062 152.875 L 307.113281 152.875 L 307.113281 178.300781 L 309.773438 178.300781 L 309.773438 166.925781 L 315.761719 166.925781 L 315.761719 178.300781 L 318.425781 178.300781 L 318.425781 169.601562 L 323.75 169.601562 L 323.75 180.976562 L 326.410156 180.976562 L 326.410156 172.277344 L 329.738281 172.277344 L 329.738281 175.621094 L 332.402344 175.621094 L 332.402344 195.023438 L 329.738281 195.023438 L 329.738281 203.054688 L 326.410156 203.054688 L 326.410156 209.074219 Z M 304.449219 209.074219 " fill-opacity="1" fill-rule="nonzero"/><g clip-path="url(#862693dd49)"><path fill="#000000" d="M 301.789062 211.75 L 301.789062 203.054688 L 299.125 203.054688 L 299.125 197.699219 L 296.464844 197.699219 L 296.464844 192.347656 L 293.136719 192.347656 L 293.136719 186.328125 L 290.472656 186.328125 L 290.472656 183.652344 L 287.8125 183.652344 L 287.8125 175.621094 L 296.464844 175.621094 L 296.464844 178.300781 L 299.125 178.300781 L 299.125 152.875 L 301.789062 152.875 L 301.789062 150.199219 L 307.113281 150.199219 L 307.113281 152.875 L 309.773438 152.875 L 309.773438 164.25 L 315.761719 164.25 L 315.761719 166.925781 L 323.75 166.925781 L 323.75 169.601562 L 329.738281 169.601562 L 329.738281 172.277344 L 332.402344 172.277344 L 332.402344 175.621094 L 335.0625 175.621094 L 335.0625 195.023438 L 332.402344 195.023438 L 332.402344 203.054688 L 329.738281 203.054688 L 329.738281 211.75 Z M 326.410156 209.074219 L 326.410156 203.054688 L 329.738281 203.054688 L 329.738281 195.023438 L 332.402344 195.023438 L 332.402344 175.621094 L 329.738281 175.621094 L 329.738281 172.277344 L 326.410156 172.277344 L 326.410156 180.976562 L 323.75 180.976562 L 323.75 169.601562 L 318.425781 169.601562 L 318.425781 178.300781 L 315.761719 178.300781 L 315.761719 166.925781 L 309.773438 166.925781 L 309.773438 178.300781 L 307.113281 178.300781 L 307.113281 152.875 L 301.789062 152.875 L 301.789062 189.003906 L 299.125 189.003906 L 299.125 180.976562 L 296.464844 180.976562 L 296.464844 178.300781 L 290.472656 178.300781 L 290.472656 183.652344 L 293.136719 183.652344 L 293.136719 186.328125 L 296.464844 186.328125 L 296.464844 192.347656 L 299.125 192.347656 L 299.125 197.699219 L 301.789062 197.699219 L 301.789062 203.054688 L 304.449219 203.054688 L 304.449219 209.074219 Z M 326.410156 209.074219 " fill-opacity="1" fill-rule="nonzero"/></g></svg>